<svg xmlns="http://www.w3.org/2000/svg" xmlns:xlink="http://www.w3.org/1999/xlink" viewBox="383 214.4897 303.7368 56.3205" width="417" height="77.32236758930758" x="41.5px" y="211.3388px" preserveAspectRatio="none"><defs/><style>.aD6z1nYkhcolorb8c52092-317e-483e-b4e2-98bd359ca95a {fill:#1976D2;fill-opacity:1;}.aIptOCySncolors-0b8c52092-317e-483e-b4e2-98bd359ca95a {fill:#1976D2;fill-opacity:1;}.aIptOCySncolors-1b8c52092-317e-483e-b4e2-98bd359ca95a {fill:#6DDDD0;fill-opacity:1;}.aIptOCySncolors-3b8c52092-317e-483e-b4e2-98bd359ca95a {fill:#3CB9EF;fill-opacity:1;}.aIptOCySncolors-4b8c52092-317e-483e-b4e2-98bd359ca95a {fill:#83EDFF;fill-opacity:1;}.aIptOCySncolors-5b8c52092-317e-483e-b4e2-98bd359ca95a {fill:#AEDDFF;fill-opacity:1;}.aIptOCySncolors-6b8c52092-317e-483e-b4e2-98bd359ca95a {fill:#FFF1FF;fill-opacity:1;}.aIptOCySncolors-7b8c52092-317e-483e-b4e2-98bd359ca95a {fill:#FFE4CE;fill-opacity:1;}.icon3-strb8c52092-317e-483e-b4e2-98bd359ca95a {stroke:#FFD4D4;stroke-opacity:1;}.icon3b8c52092-317e-483e-b4e2-98bd359ca95a {fill:#FFD4D4;fill-opacity:1;}</style><g opacity="1" transform="rotate(0 383 214.4897)">
<svg width="50.3365" height="56.3205" x="383" y="214.4897" version="1.1" preserveAspectRatio="none" viewBox="28.5 20 143 160">
  <g transform="matrix(1 0 0 1 0 0)"><g><path d="M42.9 84.5l7.2 6.7 48.5-34.8 52.5 35.4 5.2-7.9L98.5 45 42.9 84.5z" data-color="1" class="aIptOCySncolors-0b8c52092-317e-483e-b4e2-98bd359ca95a"/><path d="M99.3 70.9L58.9 99.5l8.9 5 31.6-22.3 30.9 21.4 8.1-6-38.6-26.4-.5-.3z" data-color="1" class="aIptOCySncolors-0b8c52092-317e-483e-b4e2-98bd359ca95a"/><path d="M99.6 20.3l-.5-.3-70.6 47.4 9.2 6.4L99 31.3l63.6 43.4.5.3 8.4-5.8-71.9-48.9z" data-color="1" class="aIptOCySncolors-0b8c52092-317e-483e-b4e2-98bd359ca95a"/><path d="M28.5 120.1v11.6L99 180l37-23.8V145l-36.9 23.7-70.6-48.6z" data-color="2" class="aIptOCySncolors-1b8c52092-317e-483e-b4e2-98bd359ca95a"/><path d="M28.5 93.9v11.6L99 153.8l59.7-39.7v-11.3l-59.5 39.7c-.1 0-70.7-48.6-70.7-48.6z" data-color="2" class="aIptOCySncolors-1b8c52092-317e-483e-b4e2-98bd359ca95a"/><path d="M99.1 115.8L28.5 67.3v11.5l70 48 .5.3 72.4-46.4V69.1l-72.3 46.7z" data-color="2" class="aIptOCySncolors-1b8c52092-317e-483e-b4e2-98bd359ca95a"/></g></g>
</svg>
</g><g opacity="1" transform="rotate(0 445.7602 226.9134)">
<svg width="240.9766" height="36.0352" x="445.7602" y="226.9134" version="1.1" preserveAspectRatio="none" viewBox="3.0859 -28.125 240.9766 36.0352">
  <g transform="matrix(1 0 0 1 0 0)" class="aD6z1nYkhcolorb8c52092-317e-483e-b4e2-98bd359ca95a"><path id="id-b8c52092-317e-483e-b4e2-98bd359ca95aD6z1nYkh12" d="M3.09 0L3.09-26.52L12.85-26.52Q14.39-26.52 15.74-26.10Q17.09-25.68 18.07-24.83Q19.04-23.98 19.61-22.72Q20.18-21.46 20.18-19.80L20.18-19.80Q20.18-18.93 19.87-18.07Q19.57-17.21 19.03-16.46Q18.50-15.70 17.77-15.13Q17.05-14.55 16.21-14.26L16.21-14.26Q17.09-14.10 17.97-13.59Q18.85-13.09 19.55-12.25Q20.25-11.41 20.69-10.28Q21.13-9.16 21.13-7.81L21.13-7.81Q21.13-5.96 20.58-4.51Q20.02-3.07 18.91-2.06Q17.79-1.05 16.15-0.53Q14.51 0 12.34 0L12.34 0L3.09 0ZM7.52-3.32L11.88-3.32Q12.95-3.32 13.82-3.55Q14.69-3.79 15.31-4.32Q15.94-4.84 16.28-5.68Q16.62-6.52 16.62-7.73L16.62-7.73Q16.62-8.96 16.28-9.79Q15.94-10.63 15.34-11.14Q14.75-11.66 13.94-11.88Q13.13-12.09 12.19-12.09L12.19-12.09L7.52-12.09L7.52-3.32ZM7.52-15.04L13.03-15.04Q14.39-15.45 15.03-16.61Q15.66-17.77 15.66-19.73L15.66-19.73Q15.66-21.39 14.69-22.31Q13.71-23.24 11.99-23.24L11.99-23.24L7.52-23.24L7.52-15.04Z M24.04-5.70L24.04-5.70Q24.04-7.32 24.51-8.46Q24.98-9.59 25.89-10.31Q26.80-11.04 28.10-11.40Q29.39-11.76 31.07-11.86L31.07-11.86L35.43-12.09L35.43-13.65Q35.43-14.71 35.24-15.39Q35.06-16.07 34.63-16.48Q34.20-16.89 33.49-17.06Q32.77-17.23 31.72-17.23L31.72-17.23Q30.66-17.23 29.72-16.99Q28.77-16.76 28.07-16.48L28.07-16.48Q27.23-16.15 26.52-15.74L26.52-15.74Q26.09-16.35 25.84-16.90Q25.59-17.46 25.45-17.91L25.45-17.91Q25.27-18.42 25.21-18.89L25.21-18.89Q26.15-19.36 27.23-19.71L27.23-19.71Q28.16-20.02 29.38-20.27Q30.61-20.53 31.95-20.53L31.95-20.53Q34.18-20.53 35.64-20.14Q37.11-19.75 37.98-18.96Q38.85-18.16 39.19-16.96Q39.53-15.76 39.53-14.12L39.53-14.12L39.53-3.22L41.17-1.23L41.17 0L37.56 0L36.05-1.74L35.35-1.74Q35.25-1.64 34.83-1.30Q34.41-0.96 33.76-0.58Q33.11-0.20 32.28 0.10Q31.45 0.39 30.51 0.39L30.51 0.39Q29.04 0.39 27.85-0.05Q26.66-0.49 25.81-1.30Q24.96-2.11 24.50-3.23Q24.04-4.36 24.04-5.70ZM28.30-6.05L28.30-6.05Q28.30-5.16 28.55-4.56Q28.81-3.96 29.27-3.61Q29.73-3.26 30.38-3.13Q31.04-2.99 31.84-2.99L31.84-2.99Q32.58-2.99 33.23-3.17Q33.89-3.36 34.38-3.59L34.38-3.59Q34.94-3.85 35.43-4.20L35.43-4.20L35.43-9.45L31.50-9.20Q30.59-9.14 29.97-8.89Q29.36-8.63 28.98-8.22Q28.61-7.81 28.46-7.26Q28.30-6.70 28.30-6.05Z M45.14 0L45.14-16.39L43.59-17.97L43.59-20.18L47.19-20.18L48.87-18.65L49.43-18.77Q49.57-18.89 50.07-19.18Q50.57-19.47 51.30-19.77Q52.03-20.06 52.97-20.28Q53.91-20.51 54.94-20.51L54.94-20.51Q56.58-20.51 57.86-20.02Q59.14-19.53 60.02-18.62Q60.90-17.71 61.35-16.45Q61.80-15.18 61.80-13.59L61.80-13.59L61.80 0L57.60 0L57.60-13.18Q57.60-15.31 56.71-16.32Q55.82-17.32 53.89-17.32L53.89-17.32Q52.93-17.32 52.11-17.16Q51.29-16.99 50.66-16.78L50.66-16.78Q49.94-16.54 49.32-16.23L49.32-16.23L49.32 0L45.14 0Z M66.13-10.02L66.13-10.02Q66.13-12.60 66.76-14.56Q67.38-16.52 68.58-17.85Q69.79-19.18 71.53-19.85Q73.28-20.53 75.53-20.53L75.53-20.53Q76.35-20.53 77.19-20.37Q78.03-20.21 78.71-20.04L78.71-20.04Q79.49-19.82 80.23-19.55L80.23-19.55Q80.18-19.00 80.06-18.42L80.06-18.42Q79.96-17.91 79.78-17.31Q79.59-16.72 79.32-16.15L79.32-16.15Q78.79-16.37 78.18-16.56L78.18-16.56Q77.66-16.72 76.97-16.86Q76.29-16.99 75.53-16.99L75.53-16.99Q74.22-16.99 73.25-16.51Q72.29-16.04 71.64-15.13Q71.00-14.22 70.68-12.93Q70.37-11.64 70.37-10.04L70.37-10.04Q70.37-6.52 71.73-4.71Q73.09-2.89 75.72-2.89L75.72-2.89Q76.50-2.89 77.21-3.02Q77.91-3.14 78.48-3.30L78.48-3.30Q79.12-3.50 79.69-3.73L79.69-3.73Q79.88-3.30 80.04-2.79L80.04-2.79Q80.18-2.34 80.28-1.77Q80.39-1.19 80.37-0.53L80.37-0.53Q79.65-0.27 78.87-0.06L78.87-0.06Q78.20 0.12 77.37 0.25Q76.54 0.39 75.72 0.39L75.72 0.39Q71.13 0.39 68.63-2.23Q66.13-4.84 66.13-10.02Z M82.83-9.98L82.83-9.98Q82.83-12.56 83.53-14.53Q84.22-16.50 85.48-17.83Q86.74-19.16 88.49-19.84Q90.23-20.53 92.34-20.53L92.34-20.53Q94.51-20.53 96.25-19.89Q97.99-19.26 99.20-17.97Q100.41-16.68 101.05-14.76Q101.70-12.83 101.70-10.25L101.70-10.25Q101.70-7.68 101.04-5.68Q100.39-3.69 99.17-2.34Q97.95-1.00 96.22-0.30Q94.49 0.39 92.34 0.39L92.34 0.39Q90.12 0.39 88.35-0.26Q86.58-0.92 85.36-2.22Q84.14-3.52 83.49-5.46Q82.83-7.40 82.83-9.98ZM92.34-2.83L92.34-2.83Q93.63-2.83 94.58-3.39Q95.53-3.95 96.13-4.93Q96.74-5.92 97.03-7.28Q97.32-8.63 97.32-10.25L97.32-10.25Q97.32-13.75 96.13-15.59Q94.94-17.42 92.34-17.42L92.34-17.42Q91.04-17.42 90.07-16.87Q89.10-16.31 88.47-15.31Q87.83-14.32 87.52-12.95Q87.21-11.58 87.21-9.98L87.21-9.98Q87.21-6.45 88.47-4.64Q89.73-2.83 92.34-2.83Z M116.48 0L117.87-26.52L124.53-26.52L128.36-13.28L129.79-7.58L131.21-13.28L134.94-26.52L141.60-26.52L143.05 0L138.81 0L138.01-19.18L138.11-24.32Q137.66-22.97 137.18-21.35Q136.70-19.73 136.20-17.98Q135.70-16.23 135.21-14.42Q134.71-12.62 134.21-10.87Q133.71-9.12 133.23-7.51Q132.75-5.90 132.30-4.57L132.30-4.57L127.29-4.57L121.31-24.38L121.39-19.10L120.72 0L116.48 0Z M146.58-9.98L146.58-9.98Q146.58-12.56 147.28-14.53Q147.97-16.50 149.23-17.83Q150.49-19.16 152.24-19.84Q153.98-20.53 156.09-20.53L156.09-20.53Q158.26-20.53 160-19.89Q161.74-19.26 162.95-17.97Q164.16-16.68 164.80-14.76Q165.45-12.83 165.45-10.25L165.45-10.25Q165.45-7.68 164.79-5.68Q164.14-3.69 162.92-2.34Q161.70-1.00 159.97-0.30Q158.24 0.39 156.09 0.39L156.09 0.39Q153.87 0.39 152.10-0.26Q150.33-0.92 149.11-2.22Q147.89-3.52 147.24-5.46Q146.58-7.40 146.58-9.98ZM156.09-2.83L156.09-2.83Q157.38-2.83 158.33-3.39Q159.28-3.95 159.88-4.93Q160.49-5.92 160.78-7.28Q161.07-8.63 161.07-10.25L161.07-10.25Q161.07-13.75 159.88-15.59Q158.69-17.42 156.09-17.42L156.09-17.42Q154.79-17.42 153.82-16.87Q152.85-16.31 152.22-15.31Q151.58-14.32 151.27-12.95Q150.96-11.58 150.96-9.98L150.96-9.98Q150.96-6.45 152.22-4.64Q153.48-2.83 156.09-2.83Z M168.48-10.02L168.48-10.02Q168.48-12.60 169.10-14.56Q169.73-16.52 170.93-17.85Q172.13-19.18 173.88-19.85Q175.63-20.53 177.87-20.53L177.87-20.53Q178.69-20.53 179.53-20.37Q180.37-20.21 181.05-20.04L181.05-20.04Q181.84-19.82 182.58-19.55L182.58-19.55Q182.52-19.00 182.40-18.42L182.40-18.42Q182.30-17.91 182.12-17.31Q181.93-16.72 181.66-16.15L181.66-16.15Q181.13-16.37 180.53-16.56L180.53-16.56Q180-16.72 179.32-16.86Q178.63-16.99 177.87-16.99L177.87-16.99Q176.56-16.99 175.60-16.51Q174.63-16.04 173.98-15.13Q173.34-14.22 173.03-12.93Q172.71-11.64 172.71-10.04L172.71-10.04Q172.71-6.52 174.07-4.71Q175.43-2.89 178.07-2.89L178.07-2.89Q178.85-2.89 179.55-3.02Q180.25-3.14 180.82-3.30L180.82-3.30Q181.46-3.50 182.03-3.73L182.03-3.73Q182.23-3.30 182.38-2.79L182.38-2.79Q182.52-2.34 182.63-1.77Q182.73-1.19 182.71-0.53L182.71-0.53Q181.99-0.27 181.21-0.06L181.21-0.06Q180.55 0.12 179.72 0.25Q178.89 0.39 178.07 0.39L178.07 0.39Q173.48 0.39 170.98-2.23Q168.48-4.84 168.48-10.02Z M186.35 0L186.35-28.13L190.33-28.13L190.33-13.26L190.14-10.43L191.17-11.66L197.44-19.96L202.17-19.96L195.82-11.91L194.20-10.37L195.47-9.22L202.52 0L197.77 0L191.05-9.02L190.14-10.20L190.33-6.64L190.33 0L186.35 0Z M205.12-6.54L205.12-19.96L209.30-19.96L209.30-6.91Q209.30-4.82 210.12-3.82Q210.94-2.81 212.87-2.81L212.87-2.81Q213.81-2.81 214.57-2.97Q215.33-3.13 215.90-3.34L215.90-3.34Q216.54-3.57 217.05-3.89L217.05-3.89L217.05-19.96L221.25-19.96L221.25-3.22L222.99-1.23L222.99 0L219.22 0L217.68-1.54L216.93-1.54Q216.78-1.43 216.35-1.11Q215.92-0.80 215.24-0.46Q214.57-0.12 213.69 0.14Q212.81 0.39 211.78 0.39L211.78 0.39Q210.14 0.39 208.89-0.10Q207.64-0.59 206.80-1.49Q205.96-2.40 205.54-3.68Q205.12-4.96 205.12-6.54L205.12-6.54Z M231.11 0.12L231.11 7.91L226.93 7.91L226.93-17.36L225.39-18.95L225.39-20.18L228.96-20.18L230.51-18.83L231.23-18.79Q231.35-18.91 231.75-19.19Q232.15-19.47 232.81-19.78Q233.48-20.08 234.39-20.30Q235.31-20.53 236.45-20.53L236.45-20.53Q237.89-20.53 239.27-20.06Q240.64-19.59 241.71-18.44Q242.77-17.29 243.42-15.32Q244.06-13.36 244.06-10.37L244.06-10.37Q244.06-7.79 243.27-5.78Q242.48-3.77 241.15-2.40Q239.82-1.04 238.06-0.32Q236.29 0.39 234.34 0.39L234.34 0.39Q233.83 0.39 233.25 0.35Q232.68 0.31 232.21 0.25L232.21 0.25Q231.64 0.20 231.11 0.12L231.11 0.12ZM231.11-16.27L231.11-2.89Q231.45-2.79 232.01-2.71Q232.58-2.64 233.26-2.64L233.26-2.64Q234.73-2.64 235.92-3.19Q237.11-3.75 237.94-4.76Q238.77-5.76 239.23-7.19Q239.69-8.61 239.69-10.37L239.69-10.37Q239.69-12.54 239.31-13.90Q238.93-15.25 238.21-16.03Q237.50-16.80 236.48-17.07Q235.47-17.34 234.22-17.34L234.22-17.34Q233.67-17.34 233.13-17.18Q232.58-17.01 232.13-16.80L232.13-16.80Q231.60-16.56 231.11-16.27L231.11-16.27Z"/></g>
</svg>
</g></svg>